<?xml version="1.0" encoding="utf-8"?>
<!-- Generator: Adobe Illustrator 19.1.0, SVG Export Plug-In . SVG Version: 6.00 Build 0)  -->
<svg version="1.0" id="Ebene_1" xmlns="http://www.w3.org/2000/svg" xmlns:xlink="http://www.w3.org/1999/xlink" x="0px" y="0px"
	 viewBox="0 0 80 80" style="enable-background:new 0 0 80 80;" xml:space="preserve">
<style type="text/css">
	.st0{fill:none;}
	.st1{fill:#FFFFFF;}
	.st2{opacity:0.1;}
</style>
<path d="M56.7,45L41,29.3c-0.3-0.3-0.7-0.4-1-0.4v0c0,0,0,0,0,0c0,0,0,0,0,0v0c-0.4,0-0.7,0.1-1,0.4L23.3,45c-0.6,0.6-0.6,1.5,0,2.1
	l3.6,3.6c0.6,0.6,1.5,0.6,2.1,0L40,39.6l11.1,11.1c0.6,0.6,1.5,0.6,2.1,0l3.6-3.6C57.3,46.5,57.3,45.6,56.7,45z"/>
</svg>
