<?xml version="1.0" encoding="utf-8"?>
<!-- Generator: Adobe Illustrator 19.1.0, SVG Export Plug-In . SVG Version: 6.00 Build 0)  -->
<svg version="1.0" id="Ebene_1" xmlns="http://www.w3.org/2000/svg" xmlns:xlink="http://www.w3.org/1999/xlink" x="0px" y="0px"
	 viewBox="0 0 80 80" style="enable-background:new 0 0 80 80;" xml:space="preserve">
<style type="text/css">
	.st0{fill:none;}
	.st1{fill:#FFFFFF;}
	.st2{opacity:0.1;}
</style>
<g id="XMLID_520_">
	<path d="M41,38.7c-0.3-0.3-0.7-0.4-1-0.4v0c0,0,0,0,0,0c0,0,0,0,0,0v0c-0.4,0-0.7,0.1-1,0.4L23.3,54.4c-0.6,0.6-0.6,1.5,0,2.1
		l3.6,3.6c0.6,0.6,1.5,0.6,2.1,0L40,49l11.1,11.1c0.6,0.6,1.5,0.6,2.1,0l3.6-3.6c0.6-0.6,0.6-1.5,0-2.1L41,38.7z"/>
	<path d="M26.8,41.3c0.6,0.6,1.5,0.6,2.1,0L40,30.3l11.1,11.1c0.6,0.6,1.5,0.6,2.1,0l3.6-3.6c0.6-0.6,0.6-1.5,0-2.1L41,19.9
		c-0.3-0.3-0.7-0.4-1-0.4v0c0,0,0,0,0,0c0,0,0,0,0,0v0c-0.4,0-0.7,0.1-1,0.4L23.3,35.6c-0.6,0.6-0.6,1.5,0,2.1L26.8,41.3z"/>
</g>
</svg>
